<?xml version="1.0" standalone="yes"?>
<svg xmlns="http://www.w3.org/2000/svg" width="512" height="512">
<path style="fill:#010101; stroke:none;" d="M0 0L0 233L1 233C1.01625 208.458 9.10165 182.565 18.2006 160C45.7493 91.6796 104.046 36.336 174 13C192.649 6.77878 213.21 1.0545 233 1L211 0L164 0L0 0z"/> 
<path style="fill:#89c43f; stroke:none;" d="M233.667 0.333344L234.333 0.666656L233.667 0.333344z"/>
<path style="fill:#82bf3f; stroke:none;" d="M175 14L165 16L165 17C168.504 17 167 24.0543 167 27C167 34.862 170.598 54.2312 166.5 60.8333C163.461 65.7289 151.901 68.9045 147 72L147 73C150.251 73 149 77.2824 149 80L149 103L149 200L150 200C170.777 151.846 231.802 127.749 281 138.211C299.678 142.182 313.023 152.859 330 160L330 57C353.319 62.5259 372.555 79.1506 392 92C389.778 88.9782 385.965 86.4967 384.603 82.9606C381.589 75.1349 384 62.3529 384 54C384 48.6339 386.048 37.8325 382.4 33.4954C374.913 24.5916 356.569 19.5623 346 15.5764C307.159 0.928711 264.112 -3.62158 223 1.71835C210.806 3.30225 198.765 5.60168 187.039 9.32639C182.757 10.6868 177.897 10.1434 175 14z"/>
<path style="fill:#010101; stroke:none;" d="M279 0L279 1C369.417 1.24905 454.795 73.2281 490.306 152C501.421 176.656 510.925 205.682 511 233L512 233L512 0L279 0z"/>
<path style="fill:#89c43f; stroke:none;" d="M224 1L225 2L224 1M216 2L217 3L216 2z"/>
<path style="fill:#79b93e; stroke:none;" d="M295 2L296 3L295 2z"/>
<path style="fill:#89c43f; stroke:none;" d="M211 3L212 4L211 3z"/>
<path style="fill:#79b93e; stroke:none;" d="M301 3L302 4L301 3z"/>
<path style="fill:#89c43f; stroke:none;" d="M205 4L206 5L205 4z"/>
<path style="fill:#79b93e; stroke:none;" d="M306 4L307 5L306 4z"/>
<path style="fill:#89c43f; stroke:none;" d="M200 5L201 6L200 5z"/>
<path style="fill:#79b93e; stroke:none;" d="M311 5L312 6L311 5z"/>
<path style="fill:#89c43f; stroke:none;" d="M196 6L197 7L196 6M198 6L199 7L198 6M192 7L193 8L192 7M188 8L189 9L188 8M185 9L185 10L188 10L185 9z"/>
<path style="fill:#79b93e; stroke:none;" d="M326 9L327 10L326 9z"/>
<path style="fill:#89c43f; stroke:none;" d="M183 10L184 11L183 10z"/>
<path style="fill:#79b93e; stroke:none;" d="M333 11L334 12L333 11z"/>
<path style="fill:#89c43f; stroke:none;" d="M174 13L175 14L174 13M169 14L170 15L169 14M167 15L168 16L167 15z"/>
<path style="fill:#79b93e; stroke:none;" d="M345 15L346 16L345 15z"/>
<path style="fill:#89c43f; stroke:none;" d="M154 20L154 22L147 25C135.158 25.1818 119.447 38.1182 110 44.7199C76.5692 68.082 49.8723 98.4223 30.1389 134C-28.5531 239.817 0.0113144 379.64 94 455.196C115.004 472.081 142.176 491.199 169 497L169 496C160.302 484.519 173.972 462.115 165.972 450.637C161.497 444.216 147.62 440.071 141 435.667C124.888 424.946 110.157 412.379 97.1698 398C42.6378 337.626 26.1595 245.581 60.3086 171C74.6636 139.649 95.3817 112.244 122 90.25C131.34 82.533 141.35 75.5643 152 69.7693C155.921 67.6359 164.417 64.8179 166.397 60.6096C168.112 56.9618 167 50.948 167 47L167 16L154 20z"/>
<path style="fill:#82bf3f; stroke:none;" d="M159.667 18.3333L160.333 18.6667L159.667 18.3333M155 20L156 21L155 20z"/>
<path style="fill:#79b93e; stroke:none;" d="M357 20L358 21L357 20z"/>
<path style="fill:#82bf3f; stroke:none;" d="M153 21L154 22L153 21z"/>
<path style="fill:#79b93e; stroke:none;" d="M361.667 22.3333L362.333 22.6667L361.667 22.3333z"/>
<path style="fill:#82bf3f; stroke:none;" d="M146 24L147 25L146 24M141 26L142 27L141 26z"/>
<path style="fill:#79b93e; stroke:none;" d="M370 26L371 27L370 26M372 27L373 28L372 27z"/>
<path style="fill:#82bf3f; stroke:none;" d="M137 28L138 29L137 28z"/>
<path style="fill:#79b93e; stroke:none;" d="M374 28L375 29L374 28z"/>
<path style="fill:#82bf3f; stroke:none;" d="M133 30L134 31L133 30z"/>
<path style="fill:#79b93e; stroke:none;" d="M377.667 30.3333L378.333 30.6667L377.667 30.3333M379 31L380 32L379 31M383 33L384 34L383 33M384 34L384 68C384 72.7664 382.825 79.4181 384.603 83.9105C387.05 90.0886 396.784 95.9325 401.715 100.255C411.05 108.438 418.979 118.21 426.575 128C453.713 162.978 471.861 212.309 469.896 257C468.009 299.891 456.41 340.104 432.329 376C424.585 387.545 415.353 399.191 405.169 408.675C399.149 414.282 389.018 419.952 385.028 427.17C382.952 430.926 384 436.853 384 441C384 452.541 381.725 466.92 385 478L386 478L387 475C396.309 474.677 408.943 462.614 416 456.996C442.156 436.172 462.76 410.605 479.734 382C535.793 287.523 518.419 155.449 441 78C425.11 62.1035 405.383 42.2116 384 34z"/>
<path style="fill:#82bf3f; stroke:none;" d="M390 37L391 38L390 37M391 38L392 39L391 38M394 40L395 41L394 40M402 45L403 46L402 45z"/>
<path style="fill:#fefefe; stroke:none;" d="M106 47L107 48L106 47z"/>
<path style="fill:#82bf3f; stroke:none;" d="M409 50L410 51L409 50M410 51L411 52L410 51M411 52L412 53L411 52M413 53L414 54L413 53M93 57L94 58L93 57z"/>
<path style="fill:#89c43f; stroke:none;" d="M330 57L330 128L330.028 159.961L347 179L348 180C358.425 182.932 367.206 201.907 371.753 211C390.324 248.142 387.991 294.226 364.996 329C358.995 338.075 352.1 346.539 344 353.829C339.865 357.551 331.811 361.353 330.318 367.039C328.135 375.352 330 386.413 330 395L330 455C354.053 450.858 379.021 431.604 397 416.13C485.906 339.613 491.525 200.758 415.155 114C398.078 94.5999 377.134 78.3482 354 66.7531C346.431 62.9594 338.454 58.2664 330 57z"/>
<path style="fill:#82bf3f; stroke:none;" d="M418 57L419 58L418 57z"/>
<path style="fill:#fefefe; stroke:none;" d="M87 62L88 63L87 62z"/>
<path style="fill:#82bf3f; stroke:none;" d="M86 63L87 64L86 63M425 63L426 64L425 63M426 64L427 65L426 64z"/>
<path style="fill:#79b93e; stroke:none;" d="M148 72C121.038 90.1889 97.5245 109.874 79.0285 137C32.1244 205.79 32.007 297.394 74.6011 368C87.9312 390.096 106.104 410.394 127 425.575C133.61 430.377 140.938 437.106 149 439C149 397.931 152.764 354.867 148.896 314C148.114 305.735 142.709 297.962 140.427 290C136.209 275.28 134.71 259.273 136.17 244C137.704 227.945 146.468 214.336 148.787 199C152.732 172.912 149 143.409 149 117C149 104.27 152.907 83.6938 148 72z"/>
<path style="fill:#82bf3f; stroke:none;" d="M145 73L146 74L145 73M143.667 74.3333L144.333 74.6667L143.667 74.3333M142 75L143 76L142 75M140.667 76.3333L141.333 76.6667L140.667 76.3333M139 77L140 78L139 77M137.667 78.3333L138.333 78.6667L137.667 78.3333M136 79L137 80L136 79M134.667 80.3333L135.333 80.6667L134.667 80.3333M133 81L134 82L133 81M131.667 82.3333L132.333 82.6667L131.667 82.3333M130 83L131 84L130 83M129 84L130 85L129 84M127.667 85.3333L128.333 85.6667L127.667 85.3333M126 86L127 87L126 86z"/>
<path style="fill:#fefefe; stroke:none;" d="M62 87L63 88L62 87z"/>
<path style="fill:#82bf3f; stroke:none;" d="M125 87L126 88L125 87M124 88L125 89L124 88M122 89L123 90L122 89M121 90L122 91L121 90M120 91L121 92L120 91M119 92L120 93L119 92M393 92L394 93L393 92M57 93L58 94L57 93M394 93L395 94L394 93M116 94L117 95L116 94M395 94L396 95L395 94M115 95L116 96L115 95M396 95L397 96L396 95M114 96L115 97L114 96M397 96L398 97L397 96M113 97L114 98L113 97M398 97L399 98L398 97M112 98L113 99L112 98M399 98L400 99L399 98M111 99L112 100L111 99M110 100L111 101L110 100M402 100L403 101L402 100M109 101L110 102L109 101M404 102L405 103L404 102M461 102L462 103L461 102M405 103L406 104L405 103M406 104L407 105L406 104M407 105L408 106L407 105M408 106L409 107L408 106M409 107L410 108L409 107M102 108L103 109L102 108M410 108L411 109L410 108M45 109L46 110L45 109M101 109L102 110L101 109M411 109L412 110L411 109M466 109L467 110L466 109M100 110L101 111L100 110M99 111L100 112L99 111M98 112L99 113L98 112M413 112L414 113L413 112M97 113L98 114L97 113M414 113L415 114L414 113M96 114L97 115L96 114M415 114L416 115L415 114M95 115L96 116L95 115M416 115L417 116L416 115M94 116L95 117L94 116M417 116L418 117L417 116M418 117L419 118L418 117M92 119L93 120L92 119M91 120L92 121L91 120M420 120L421 121L420 120M37 121L38 122L37 121M90 121L91 122L90 121M421 121L422 122L421 121M474 121L475 122L474 121M89 122L90 123L89 122M422 122L423 123L422 122M88 124L89 125L88 124M87 125L88 126L87 125M424 125L425 126L424 125M86 126L87 127L86 126M425 126L426 127L425 126M477 126L478 127L477 126M426 127L427 128L426 127M84 129L85 130L84 129M83 130L84 131L83 130M428 130L429 131L428 130M429 131L430 132L429 131M82 132L83 133L82 132M30 133L31 134L30 133M81 133L82 134L81 133M430 133L431 134L430 133M431 134L432 135L431 134M29 135L30 136L29 135M79 136L80 137L79 136z"/>
<path style="fill:#89c43f; stroke:none;" d="M241 136L241 137L245 137L241 136z"/>
<path style="fill:#fefefe; stroke:none;" d="M245 136.424C224.735 139.118 206.143 144.901 189 156.333C175.936 165.046 165.025 176.019 156.194 189C123.437 237.157 131.708 305.866 175 344.829C201.707 368.866 237.628 379.229 273 374.715C289.195 372.647 305.119 366.697 319 358.189C392.969 312.852 394.595 198.668 319 153.604C307.888 146.98 295.7 141.637 283 139.003C270.674 136.446 257.576 134.753 245 136.424z"/>
<path style="fill:#89c43f; stroke:none;" d="M267 136L267 137L271 137L267 136z"/>
<path style="fill:#82bf3f; stroke:none;" d="M432 136L433 137L432 136M78 137L79 138L78 137z"/>
<path style="fill:#89c43f; stroke:none;" d="M234 137L234 138L237 138L234 137M275 137L275 138L278 138L275 137z"/>
<path style="fill:#82bf3f; stroke:none;" d="M433 137L434 138L433 137z"/>
<path style="fill:#89c43f; stroke:none;" d="M229 138L229 139L232 139L229 138M280 138L280 139L283 139L280 138z"/>
<path style="fill:#82bf3f; stroke:none;" d="M77 139L78 140L77 139z"/>
<path style="fill:#89c43f; stroke:none;" d="M225.667 139.333L226.333 139.667L225.667 139.333M285.667 139.333L286.333 139.667L285.667 139.333z"/>
<path style="fill:#82bf3f; stroke:none;" d="M434 139L435 140L434 139z"/>
<path style="fill:#89c43f; stroke:none;" d="M222.667 140.333L223.333 140.667L222.667 140.333M289 140L290 141L289 140z"/>
<path style="fill:#82bf3f; stroke:none;" d="M435 140L436 141L435 140z"/>
<path style="fill:#89c43f; stroke:none;" d="M219 141L220 142L219 141M292.667 141.333L293.333 141.667L292.667 141.333z"/>
<path style="fill:#82bf3f; stroke:none;" d="M75 142L76 143L75 142z"/>
<path style="fill:#89c43f; stroke:none;" d="M216 142L217 143L216 142M295.667 142.333L296.333 142.667L295.667 142.333z"/>
<path style="fill:#82bf3f; stroke:none;" d="M436 142L437 143L436 142z"/>
<path style="fill:#89c43f; stroke:none;" d="M213 143L214 144L213 143M298 143L299 144L298 143z"/>
<path style="fill:#82bf3f; stroke:none;" d="M437 143L438 144L437 143M74 144L75 145L74 144z"/>
<path style="fill:#89c43f; stroke:none;" d="M210.667 144.333L211.333 144.667L210.667 144.333M300.667 144.333L301.333 144.667L300.667 144.333z"/>
<path style="fill:#82bf3f; stroke:none;" d="M73 145L74 146L73 145z"/>
<path style="fill:#89c43f; stroke:none;" d="M208 145L209 146L208 145M303 145L304 146L303 145z"/>
<path style="fill:#82bf3f; stroke:none;" d="M438 145L439 146L438 145M487 145L488 146L487 145z"/>
<path style="fill:#89c43f; stroke:none;" d="M206 146L207 147L206 146M305.667 146.333L306.333 146.667L305.667 146.333z"/>
<path style="fill:#82bf3f; stroke:none;" d="M23 147L24 148L23 147M72 147L73 148L72 147z"/>
<path style="fill:#89c43f; stroke:none;" d="M204 147L205 148L204 147M307.667 147.333L308.333 147.667L307.667 147.333z"/>
<path style="fill:#82bf3f; stroke:none;" d="M439 147L440 148L439 147M488 147L489 148L488 147z"/>
<path style="fill:#89c43f; stroke:none;" d="M202 148L203 149L202 148M309.667 148.333L310.333 148.667L309.667 148.333z"/>
<path style="fill:#82bf3f; stroke:none;" d="M440 148L441 149L440 148M71 149L72 150L71 149z"/>
<path style="fill:#89c43f; stroke:none;" d="M200 149L201 150L200 149M311.667 149.333L312.333 149.667L311.667 149.333z"/>
<path style="fill:#82bf3f; stroke:none;" d="M70 150L71 151L70 150z"/>
<path style="fill:#89c43f; stroke:none;" d="M198 150L199 151L198 150M313 150L314 151L313 150z"/>
<path style="fill:#82bf3f; stroke:none;" d="M441 150L442 151L441 150z"/>
<path style="fill:#89c43f; stroke:none;" d="M196 151L197 152L196 151M315 151L316 152L315 151z"/>
<path style="fill:#82bf3f; stroke:none;" d="M69 152L70 153L69 152z"/>
<path style="fill:#89c43f; stroke:none;" d="M194 152L195 153L194 152M317 152L318 153L317 152z"/>
<path style="fill:#82bf3f; stroke:none;" d="M442 152L443 153L442 152z"/>
<path style="fill:#89c43f; stroke:none;" d="M193 153L194 154L193 153M318.667 153.333L319.333 153.667L318.667 153.333z"/>
<path style="fill:#82bf3f; stroke:none;" d="M68 154L69 155L68 154z"/>
<path style="fill:#89c43f; stroke:none;" d="M191 154L192 155L191 154M320 154L321 155L320 154z"/>
<path style="fill:#82bf3f; stroke:none;" d="M443 154L444 155L443 154z"/>
<path style="fill:#89c43f; stroke:none;" d="M190 155L191 156L190 155M322 155L323 156L322 155z"/>
<path style="fill:#82bf3f; stroke:none;" d="M19 156L20 157L19 156M67 156L68 157L67 156z"/>
<path style="fill:#89c43f; stroke:none;" d="M188 156L189 157L188 156M323 156L324 157L323 156z"/>
<path style="fill:#82bf3f; stroke:none;" d="M444 156L445 157L444 156z"/>
<path style="fill:#89c43f; stroke:none;" d="M187 157L188 158L187 157M325 157L326 158L325 157z"/>
<path style="fill:#82bf3f; stroke:none;" d="M66 158L67 159L66 158z"/>
<path style="fill:#89c43f; stroke:none;" d="M185 158L186 159L185 158M326 158L327 159L326 158z"/>
<path style="fill:#82bf3f; stroke:none;" d="M445 158L446 159L445 158z"/>
<path style="fill:#89c43f; stroke:none;" d="M184 159L185 160L184 159M327 159L328 160L327 159z"/>
<path style="fill:#82bf3f; stroke:none;" d="M446 159L447 160L446 159M65 160L66 161L65 160z"/>
<path style="fill:#89c43f; stroke:none;" d="M181 161L182 162L181 161z"/>
<path style="fill:#82bf3f; stroke:none;" d="M447 161L448 162L447 161M64 162L65 163L64 162z"/>
<path style="fill:#89c43f; stroke:none;" d="M180 162L181 163L180 162M179 163L180 164L179 163z"/>
<path style="fill:#82bf3f; stroke:none;" d="M448.333 163.667L448.667 164.333L448.333 163.667M63 164L64 165L63 164M15 166L16 167L15 166M62 166L63 167L62 166z"/>
<path style="fill:#89c43f; stroke:none;" d="M175 166L176 167L175 166z"/>
<path style="fill:#82bf3f; stroke:none;" d="M449 166L450 167L449 166z"/>
<path style="fill:#89c43f; stroke:none;" d="M174 167L175 168L174 167z"/>
<path style="fill:#82bf3f; stroke:none;" d="M61 168L62 169L61 168z"/>
<path style="fill:#89c43f; stroke:none;" d="M173 168L174 169L173 168z"/>
<path style="fill:#82bf3f; stroke:none;" d="M450 168L451 169L450 168z"/>
<path style="fill:#89c43f; stroke:none;" d="M172 169L173 170L172 169z"/>
<path style="fill:#82bf3f; stroke:none;" d="M497 169L498 170L497 169M60 170L61 171L60 170z"/>
<path style="fill:#89c43f; stroke:none;" d="M171 170L172 171L171 170z"/>
<path style="fill:#82bf3f; stroke:none;" d="M451 170L452 171L451 170z"/>
<path style="fill:#89c43f; stroke:none;" d="M170 171L171 172L170 171z"/>
<path style="fill:#82bf3f; stroke:none;" d="M59.3333 172.667L59.6667 173.333L59.3333 172.667z"/>
<path style="fill:#89c43f; stroke:none;" d="M169 172L170 173L169 172z"/>
<path style="fill:#82bf3f; stroke:none;" d="M452 172L453 173L452 172z"/>
<path style="fill:#89c43f; stroke:none;" d="M168 173L169 174L168 173M167 174L168 175L167 174z"/>
<path style="fill:#82bf3f; stroke:none;" d="M58 175L59 176L58 175z"/>
<path style="fill:#89c43f; stroke:none;" d="M166 175L167 176L166 175z"/>
<path style="fill:#82bf3f; stroke:none;" d="M453 175L454 176L453 175M346 176L347 177L346 176M57.3333 177.667L57.6667 178.333L57.3333 177.667z"/>
<path style="fill:#79b93e; stroke:none;" d="M347 177L348 178L347 177z"/>
<path style="fill:#82bf3f; stroke:none;" d="M454 177L455 178L454 177z"/>
<path style="fill:#79b93e; stroke:none;" d="M348 178L349 179L348 178z"/>
<path style="fill:#89c43f; stroke:none;" d="M163 179L164 180L163 179z"/>
<path style="fill:#79b93e; stroke:none;" d="M349 179C352.623 187.142 359.162 193.946 363.191 202C372.93 221.464 377.91 244.236 375.83 266C369.72 329.943 310.957 382.037 246 375.83C218.259 373.18 198.835 360.268 176 346C186.33 360.654 206.267 371.695 223 377.333C267.073 392.182 316.631 382.201 349.91 348.91C385.363 313.446 394.319 255.784 372.244 211C366.682 199.717 359.111 186.734 349 179z"/>
<path style="fill:#82bf3f; stroke:none;" d="M56 180L57 181L56 180z"/>
<path style="fill:#89c43f; stroke:none;" d="M162 180L163 181L162 180z"/>
<path style="fill:#82bf3f; stroke:none;" d="M455 180L456 181L455 180M10 181L11 182L10 181z"/>
<path style="fill:#89c43f; stroke:none;" d="M161 181L162 182L161 181z"/>
<path style="fill:#82bf3f; stroke:none;" d="M456.333 182.667L456.667 183.333L456.333 182.667M55 183L56 184L55 183z"/>
<path style="fill:#89c43f; stroke:none;" d="M351 183L352 184L351 183z"/>
<path style="fill:#82bf3f; stroke:none;" d="M353 183L354 184L353 183z"/>
<path style="fill:#89c43f; stroke:none;" d="M159 184L160 185L159 184z"/>
<path style="fill:#82bf3f; stroke:none;" d="M352 184L353 185L352 184M354 184L355 185L354 184M54.3333 185.667L54.6667 186.333L54.3333 185.667z"/>
<path style="fill:#89c43f; stroke:none;" d="M158 185L159 186L158 185z"/>
<path style="fill:#82bf3f; stroke:none;" d="M457 185L458 186L457 185z"/>
<path style="fill:#89c43f; stroke:none;" d="M157 187L158 188L157 187M354 187L355 188L354 187z"/>
<path style="fill:#82bf3f; stroke:none;" d="M8 188L9 189L8 188M53.3333 188.667L53.6667 189.333L53.3333 188.667z"/>
<path style="fill:#89c43f; stroke:none;" d="M156 188L157 189L156 188z"/>
<path style="fill:#82bf3f; stroke:none;" d="M458.333 188.667L458.667 189.333L458.333 188.667M358 189L359 190L358 189z"/>
<path style="fill:#89c43f; stroke:none;" d="M356 190L357 191L356 190z"/>
<path style="fill:#82bf3f; stroke:none;" d="M359 190L360 191L359 190M52.3333 191.667L52.6667 192.333L52.3333 191.667z"/>
<path style="fill:#89c43f; stroke:none;" d="M154 191L155 192L154 191z"/>
<path style="fill:#82bf3f; stroke:none;" d="M459 191L460 192L459 191z"/>
<path style="fill:#89c43f; stroke:none;" d="M153 193L154 194L153 193M358 193L359 194L358 193z"/>
<path style="fill:#82bf3f; stroke:none;" d="M361 193L362 194L361 193M51.3333 194.667L51.6667 195.333L51.3333 194.667z"/>
<path style="fill:#89c43f; stroke:none;" d="M152 194L153 195L152 194z"/>
<path style="fill:#82bf3f; stroke:none;" d="M460.333 194.667L460.667 195.333L460.333 194.667z"/>
<path style="fill:#89c43f; stroke:none;" d="M359 195L360 196L359 195M151 196L152 197L151 196z"/>
<path style="fill:#82bf3f; stroke:none;" d="M50.3333 198.667L50.6667 199.333L50.3333 198.667z"/>
<path style="fill:#89c43f; stroke:none;" d="M150 198L151 199L150 198z"/>
<path style="fill:#82bf3f; stroke:none;" d="M361 198L362 199L361 198M461 198L462 199L461 198z"/>
<path style="fill:#89c43f; stroke:none;" d="M149 200L150 201L149 200z"/>
<path style="fill:#79b93e; stroke:none;" d="M207 200L207 312C218.526 308.66 215 295.839 215 286L215 208C239.211 222.131 265.903 232.731 291 245.247C299.335 249.404 312.621 258.746 322 257L322 255L236 213.691L207 200z"/>
<path style="fill:#89c43f; stroke:none;" d="M362 200L363 201L362 200z"/>
<path style="fill:#82bf3f; stroke:none;" d="M49.3333 201.667L49.6667 202.333L49.3333 201.667M148 201L149 202L148 201M462.333 201.667L462.667 202.333L462.333 201.667z"/>
<path style="fill:#89c43f; stroke:none;" d="M148 202L149 203L148 202M213 202L214 203L213 202M363 202L364 203L363 202z"/>
<path style="fill:#82bf3f; stroke:none;" d="M367 202L368 203L367 202M147 203L148 204L147 203z"/>
<path style="fill:#89c43f; stroke:none;" d="M215 203L216 204L215 203M147 204L148 205L147 204M217 204L218 205L217 204M364 204L365 205L364 204z"/>
<path style="fill:#82bf3f; stroke:none;" d="M4 205L5 206L4 205M146 205L147 206L146 205z"/>
<path style="fill:#89c43f; stroke:none;" d="M219 205L220 206L219 205z"/>
<path style="fill:#82bf3f; stroke:none;" d="M463.333 205.667L463.667 206.333L463.333 205.667M507 205L508 206L507 205M48.3333 206.667L48.6667 207.333L48.3333 206.667z"/>
<path style="fill:#89c43f; stroke:none;" d="M146 206L147 207L146 206M221 206L222 207L221 206M223 207L224 208L223 207M145 208L146 209L145 208z"/>
<path style="fill:#82bf3f; stroke:none;" d="M215 208L215 308L317 259L317 257L215 208z"/>
<path style="fill:#89c43f; stroke:none;" d="M225 208L226 209L225 208M227 209L228 210L227 209M366 209L367 210L366 209z"/>
<path style="fill:#82bf3f; stroke:none;" d="M47.3333 210.667L47.6667 211.333L47.3333 210.667M144 210L145 211L144 210z"/>
<path style="fill:#89c43f; stroke:none;" d="M229 210L230 211L229 210z"/>
<path style="fill:#82bf3f; stroke:none;" d="M464.333 210.667L464.667 211.333L464.333 210.667z"/>
<path style="fill:#89c43f; stroke:none;" d="M144 211L145 212L144 211M231 211L232 212L231 211M367 211L368 212L367 211z"/>
<path style="fill:#82bf3f; stroke:none;" d="M233 212L234 213L233 212z"/>
<path style="fill:#89c43f; stroke:none;" d="M143 213L144 214L143 213z"/>
<path style="fill:#82bf3f; stroke:none;" d="M235 213L236 214L235 213M237 214L238 215L237 214z"/>
<path style="fill:#89c43f; stroke:none;" d="M368 214L369 215L368 214z"/>
<path style="fill:#82bf3f; stroke:none;" d="M465 214L465 217L466 217L465 214M46.3333 215.667L46.6667 216.333L46.3333 215.667M142 215L143 216L142 215z"/>
<path style="fill:#89c43f; stroke:none;" d="M142 216L143 217L142 216M369 217L370 218L369 217z"/>
<path style="fill:#82bf3f; stroke:none;" d="M141 218L142 219L141 218M375 218L376 219L375 218z"/>
<path style="fill:#89c43f; stroke:none;" d="M141 219L142 220L141 219z"/>
<path style="fill:#82bf3f; stroke:none;" d="M370 219L371 220L370 219M45 220L45 223L46 223L45 220z"/>
<path style="fill:#89c43f; stroke:none;" d="M370 220L371 221L370 220z"/>
<path style="fill:#82bf3f; stroke:none;" d="M466.333 220.667L466.667 221.333L466.333 220.667M140 221L141 222L140 221z"/>
<path style="fill:#89c43f; stroke:none;" d="M252 221L253 222L252 221M140.333 222.667L140.667 223.333L140.333 222.667M254 222L255 223L254 222z"/>
<path style="fill:#fefefe; stroke:none;" d="M1 223L2 224L1 223z"/>
<path style="fill:#89c43f; stroke:none;" d="M256 223L257 224L256 223M371 223L372 224L371 223M258 224L259 225L258 224M139.333 225.667L139.667 226.333L139.333 225.667M260 225L261 226L260 225M262 226L263 227L262 226z"/>
<path style="fill:#82bf3f; stroke:none;" d="M372 226L373 227L372 226M467 226L467 230L468 230L467 226M44 227L44 230L45 230L44 227z"/>
<path style="fill:#89c43f; stroke:none;" d="M264 227L265 228L264 227M372 227L373 228L372 227M266 228L267 229L266 228z"/>
<path style="fill:#82bf3f; stroke:none;" d="M138 229L139 230L138 229M268 229L269 230L268 229z"/>
<path style="fill:#89c43f; stroke:none;" d="M138.333 230.667L138.667 231.333L138.333 230.667z"/>
<path style="fill:#82bf3f; stroke:none;" d="M270 230L271 231L270 230M272 231L273 232L272 231z"/>
<path style="fill:#89c43f; stroke:none;" d="M373 231L374 232L373 231z"/>
<path style="fill:#82bf3f; stroke:none;" d="M380 233L381 234L380 233M511 233L512 234L511 233M137 234L138 235L137 234M468 234L468 240L469 240L468 234M43 235L43 241L44 241L43 235z"/>
<path style="fill:#89c43f; stroke:none;" d="M137.333 235.667L137.667 236.333L137.333 235.667M374.333 236.667L374.667 237.333L374.333 236.667M287 238L288 239L287 238M289 239L290 240L289 239M291 240L292 241L291 240M136 241L136 246L137 246L136 241M293 241L294 242L293 241M295 242L296 243L295 242M297 243L298 244L297 243z"/>
<path style="fill:#82bf3f; stroke:none;" d="M375 243L376 244L375 243z"/>
<path style="fill:#89c43f; stroke:none;" d="M299 244L300 245L299 244M375 244L375 247L376 247L375 244M301 245L302 246L301 245z"/>
<path style="fill:#82bf3f; stroke:none;" d="M303 246L304 247L303 246M305 247L306 248L305 247M309 249L310 250L309 249M383 249L384 250L383 249M469 251L469 261L470 261L469 251M42 254L42 258L43 258L42 254z"/>
<path style="fill:#89c43f; stroke:none;" d="M320 254L321 255L320 254M322.333 255.667L322.667 256.333L322.333 255.667M320 257L321 258L320 257M317 258L318 259L317 258M315 259L316 260L315 259M313 260L314 261L313 260M311 261L312 262L311 261M309 262L310 263L309 262M307 263L308 264L307 263M304.667 264.333L305.333 264.667L304.667 264.333M302.667 265.333L303.333 265.667L302.667 265.333M375 265L375 268L376 268L375 265M136 266L136 271L137 271L136 266M300.667 266.333L301.333 266.667L300.667 266.333M298.667 267.333L299.333 267.667L298.667 267.333M296.667 268.333L297.333 268.667L296.667 268.333z"/>
<path style="fill:#82bf3f; stroke:none;" d="M375 268L376 269L375 268z"/>
<path style="fill:#89c43f; stroke:none;" d="M294.667 269.333L295.333 269.667L294.667 269.333M292.667 270.333L293.333 270.667L292.667 270.333M290 271L291 272L290 271z"/>
<path style="fill:#82bf3f; stroke:none;" d="M43 272L43 277L44 277L43 272z"/>
<path style="fill:#89c43f; stroke:none;" d="M288 272L289 273L288 272z"/>
<path style="fill:#82bf3f; stroke:none;" d="M468 272L468 278L469 278L468 272z"/>
<path style="fill:#89c43f; stroke:none;" d="M286 273L287 274L286 273M284 274L285 275L284 274M374.333 274.667L374.667 275.333L374.333 274.667M137.333 275.667L137.667 276.333L137.333 275.667M282 275L283 276L282 275M280 276L281 277L280 276z"/>
<path style="fill:#82bf3f; stroke:none;" d="M137 277L138 278L137 277z"/>
<path style="fill:#89c43f; stroke:none;" d="M278 277L279 278L278 277z"/>
<path style="fill:#82bf3f; stroke:none;" d="M0 278L1 279L0 278z"/>
<path style="fill:#89c43f; stroke:none;" d="M276 278L277 279L276 278z"/>
<path style="fill:#82bf3f; stroke:none;" d="M383 278L384 279L383 278z"/>
<path style="fill:#010101; stroke:none;" d="M0 279L0 512L233 512L233 511C144.924 510.757 58.6505 440.98 23.3086 364C15.393 346.759 9.16444 328.566 5.21065 310C3.16112 300.376 3.74146 287.896 0 279z"/>
<path style="fill:#89c43f; stroke:none;" d="M274 279L275 280L274 279z"/>
<path style="fill:#010101; stroke:none;" d="M511 279C510.932 303.566 502.906 329.415 493.799 352C466.251 420.32 407.954 475.664 338 499C319.315 505.233 298.831 510.945 279 511L279 512L512 512L512 348L512 301L511 279z"/>
<path style="fill:#89c43f; stroke:none;" d="M138.333 280.667L138.667 281.333L138.333 280.667M272 280L273 281L272 280M373 280L374 281L373 280M270 281L271 282L270 281z"/>
<path style="fill:#82bf3f; stroke:none;" d="M44 282L44 285L45 285L44 282M138 282L139 283L138 282z"/>
<path style="fill:#89c43f; stroke:none;" d="M268 282L269 283L268 282z"/>
<path style="fill:#82bf3f; stroke:none;" d="M467 282L467 286L468 286L467 282z"/>
<path style="fill:#89c43f; stroke:none;" d="M266 283L267 284L266 283M263.667 284.333L264.333 284.667L263.667 284.333M372 284L373 285L372 284M139.333 285.667L139.667 286.333L139.333 285.667M261.667 285.333L262.333 285.667L261.667 285.333z"/>
<path style="fill:#82bf3f; stroke:none;" d="M372 285L373 286L372 285z"/>
<path style="fill:#89c43f; stroke:none;" d="M259.667 286.333L260.333 286.667L259.667 286.333M257.667 287.333L258.333 287.667L257.667 287.333M140.333 288.667L140.667 289.333L140.333 288.667M255 288L256 289L255 288M371 288L372 289L371 288z"/>
<path style="fill:#82bf3f; stroke:none;" d="M45 289L45 292L46 292L45 289z"/>
<path style="fill:#89c43f; stroke:none;" d="M253 289L254 290L253 289z"/>
<path style="fill:#82bf3f; stroke:none;" d="M140 290L141 291L140 290z"/>
<path style="fill:#89c43f; stroke:none;" d="M251 290L252 291L251 290z"/>
<path style="fill:#82bf3f; stroke:none;" d="M466.333 290.667L466.667 291.333L466.333 290.667z"/>
<path style="fill:#89c43f; stroke:none;" d="M249 291L250 292L249 291M370 291L371 292L370 291M141 292L142 293L141 292M247 292L248 293L247 292z"/>
<path style="fill:#82bf3f; stroke:none;" d="M370 292L371 293L370 292M141 293L142 294L141 293z"/>
<path style="fill:#89c43f; stroke:none;" d="M245 293L246 294L245 293M243 294L244 295L243 294M369 294L370 295L369 294z"/>
<path style="fill:#82bf3f; stroke:none;" d="M380 294L381 295L380 294M46.3333 295.667L46.6667 296.333L46.3333 295.667z"/>
<path style="fill:#89c43f; stroke:none;" d="M142 295L143 296L142 295M241 295L242 296L241 295z"/>
<path style="fill:#82bf3f; stroke:none;" d="M465 295L465 298L466 298L465 295M142 296L143 297L142 296z"/>
<path style="fill:#89c43f; stroke:none;" d="M239 296L240 297L239 296M237 297L238 298L237 297M368 297L369 298L368 297M143 298L144 299L143 298M235 298L236 299L235 298M233 299L234 300L233 299z"/>
<path style="fill:#82bf3f; stroke:none;" d="M47.3333 300.667L47.6667 301.333L47.3333 300.667z"/>
<path style="fill:#89c43f; stroke:none;" d="M144 300L145 301L144 300M231 300L232 301L231 300M367 300L368 301L367 300z"/>
<path style="fill:#82bf3f; stroke:none;" d="M464.333 300.667L464.667 301.333L464.333 300.667M144 301L145 302L144 301z"/>
<path style="fill:#89c43f; stroke:none;" d="M228.667 301.333L229.333 301.667L228.667 301.333M226.667 302.333L227.333 302.667L226.667 302.333M366 302L367 303L366 302M145 303L146 304L145 303M224.667 303.333L225.333 303.667L224.667 303.333z"/>
<path style="fill:#82bf3f; stroke:none;" d="M48.3333 304.667L48.6667 305.333L48.3333 304.667z"/>
<path style="fill:#89c43f; stroke:none;" d="M222.667 304.333L223.333 304.667L222.667 304.333M146 305L147 306L146 305M220 305L221 306L220 305z"/>
<path style="fill:#82bf3f; stroke:none;" d="M463.333 305.667L463.667 306.333L463.333 305.667M4 306L5 307L4 306z"/>
<path style="fill:#89c43f; stroke:none;" d="M218 306L219 307L218 306M147 307L148 308L147 307M216 307L217 308L216 307M364 307L365 308L364 307z"/>
<path style="fill:#82bf3f; stroke:none;" d="M147 308L148 309L147 308M49 309L50 310L49 309z"/>
<path style="fill:#89c43f; stroke:none;" d="M148 309L149 310L148 309M363 309L364 310L363 309z"/>
<path style="fill:#82bf3f; stroke:none;" d="M375 309L376 310L375 309M462.333 309.667L462.667 310.333L462.333 309.667M148 310L149 311L148 310z"/>
<path style="fill:#89c43f; stroke:none;" d="M149 311L150 312L149 311M362 311L363 312L362 311z"/>
<path style="fill:#82bf3f; stroke:none;" d="M50.3333 312.667L50.6667 313.333L50.3333 312.667M149 312L149 407C149 414.249 152.454 434.816 146 439L146 440C151.46 442.352 162.71 446.274 165.972 451.39C168.039 454.631 167 460.327 167 464C167 474.117 164.254 488.879 169 498L172 497L172 499L196 504C201.953 510.918 223.257 510.211 232 511.285C264.684 515.299 300.786 511.299 332 500.999C340.326 498.252 356.928 495.493 362 488L385 478L384 427L330 455L330 365C316.793 370.691 305.224 377.74 291 381.116C253.128 390.104 213.202 379.147 184 353.711C169.758 341.305 160.846 326.147 149 312z"/>
<path style="fill:#89c43f; stroke:none;" d="M150 313L151 314L150 313z"/>
<path style="fill:#82bf3f; stroke:none;" d="M361 313L362 314L361 313M461 313L462 314L461 313z"/>
<path style="fill:#89c43f; stroke:none;" d="M151 315L152 316L151 315z"/>
<path style="fill:#82bf3f; stroke:none;" d="M51.3333 316.667L51.6667 317.333L51.3333 316.667z"/>
<path style="fill:#89c43f; stroke:none;" d="M359 316L360 317L359 316z"/>
<path style="fill:#82bf3f; stroke:none;" d="M460.333 316.667L460.667 317.333L460.333 316.667z"/>
<path style="fill:#89c43f; stroke:none;" d="M152 317L153 318L152 317M153 318L154 319L153 318M358 318L359 319L358 318z"/>
<path style="fill:#82bf3f; stroke:none;" d="M52.3333 319.667L52.6667 320.333L52.3333 319.667z"/>
<path style="fill:#89c43f; stroke:none;" d="M154 320L155 321L154 320z"/>
<path style="fill:#82bf3f; stroke:none;" d="M459 320L460 321L459 320z"/>
<path style="fill:#89c43f; stroke:none;" d="M155 321L156 322L155 321M356 321L357 322L356 321z"/>
<path style="fill:#82bf3f; stroke:none;" d="M53.3333 322.667L53.6667 323.333L53.3333 322.667M458.333 322.667L458.667 323.333L458.333 322.667M8 323L9 324L8 323z"/>
<path style="fill:#89c43f; stroke:none;" d="M156 323L157 324L156 323M157 324L158 325L157 324M354 324L355 325L354 324z"/>
<path style="fill:#82bf3f; stroke:none;" d="M54.3333 325.667L54.6667 326.333L54.3333 325.667M367 325L368 326L367 325M457.333 325.667L457.667 326.333L457.333 325.667z"/>
<path style="fill:#89c43f; stroke:none;" d="M158 326L159 327L158 326M159 327L160 328L159 327z"/>
<path style="fill:#82bf3f; stroke:none;" d="M352 327L353 328L352 327M55.3333 328.667L55.6667 329.333L55.3333 328.667z"/>
<path style="fill:#89c43f; stroke:none;" d="M351 328L352 329L351 328z"/>
<path style="fill:#82bf3f; stroke:none;" d="M456.333 328.667L456.667 329.333L456.333 328.667M10 330L11 331L10 330z"/>
<path style="fill:#89c43f; stroke:none;" d="M161 330L162 331L161 330z"/>
<path style="fill:#82bf3f; stroke:none;" d="M56 331L57 332L56 331z"/>
<path style="fill:#89c43f; stroke:none;" d="M162 331L163 332L162 331z"/>
<path style="fill:#82bf3f; stroke:none;" d="M455 331L456 332L455 331z"/>
<path style="fill:#89c43f; stroke:none;" d="M163 332L164 333L163 332M348 332L349 333L348 332M347 333L348 334L347 333z"/>
<path style="fill:#82bf3f; stroke:none;" d="M57 334L58 335L57 334M361 334L362 335L361 334M454 334L455 335L454 334M58 336L59 337L58 336z"/>
<path style="fill:#89c43f; stroke:none;" d="M166 336L167 337L166 336z"/>
<path style="fill:#82bf3f; stroke:none;" d="M453 336L454 337L453 336z"/>
<path style="fill:#89c43f; stroke:none;" d="M167 337L168 338L167 337z"/>
<path style="fill:#82bf3f; stroke:none;" d="M59.3333 338.667L59.6667 339.333L59.3333 338.667z"/>
<path style="fill:#89c43f; stroke:none;" d="M168 338L169 339L168 338z"/>
<path style="fill:#82bf3f; stroke:none;" d="M358 338L359 339L358 338z"/>
<path style="fill:#89c43f; stroke:none;" d="M169 339L170 340L169 339z"/>
<path style="fill:#82bf3f; stroke:none;" d="M452 339L453 340L452 339z"/>
<path style="fill:#89c43f; stroke:none;" d="M170 340L171 341L170 340z"/>
<path style="fill:#82bf3f; stroke:none;" d="M60 341L61 342L60 341z"/>
<path style="fill:#89c43f; stroke:none;" d="M171 341L172 342L171 341z"/>
<path style="fill:#82bf3f; stroke:none;" d="M451 341L452 342L451 341z"/>
<path style="fill:#89c43f; stroke:none;" d="M172 342L173 343L172 342z"/>
<path style="fill:#82bf3f; stroke:none;" d="M61 343L62 344L61 343z"/>
<path style="fill:#89c43f; stroke:none;" d="M173 343L174 344L173 343z"/>
<path style="fill:#82bf3f; stroke:none;" d="M354 343L355 344L354 343M450 343L451 344L450 343z"/>
<path style="fill:#89c43f; stroke:none;" d="M174 344L175 345L174 344z"/>
<path style="fill:#82bf3f; stroke:none;" d="M353 344L354 345L353 344M62 345L63 346L62 345M449 345L450 346L449 345M63 347L64 348L63 347z"/>
<path style="fill:#89c43f; stroke:none;" d="M178 347L179 348L178 347M333 347L334 348L333 347M179 348L180 349L179 348M332 348L333 349L332 348z"/>
<path style="fill:#82bf3f; stroke:none;" d="M448 348L449 349L448 348M64 349L65 350L64 349M447 350L448 351L447 350M65 351L66 352L65 351z"/>
<path style="fill:#89c43f; stroke:none;" d="M183 351L184 352L183 351M328 351L329 352L328 351z"/>
<path style="fill:#82bf3f; stroke:none;" d="M446.333 351.667L446.667 352.333L446.333 351.667M184 352L185 353L184 352M327 352L328 353L327 352M345 352L346 353L345 352M66 353L67 354L66 353M344 353L345 354L344 353M445 353L446 354L445 353z"/>
<path style="fill:#89c43f; stroke:none;" d="M187 354L188 355L187 354M324 354L325 355L324 354z"/>
<path style="fill:#82bf3f; stroke:none;" d="M343 354L344 355L343 354M19 355L20 356L19 355M67 355L68 356L67 355M342 355L343 356L342 355M444 355L445 356L444 355z"/>
<path style="fill:#89c43f; stroke:none;" d="M190 356L191 357L190 356M321 356L322 357L321 356z"/>
<path style="fill:#82bf3f; stroke:none;" d="M68 357L69 358L68 357M443 357L444 358L443 357z"/>
<path style="fill:#89c43f; stroke:none;" d="M193 358L194 359L193 358M318 358L319 359L318 358z"/>
<path style="fill:#82bf3f; stroke:none;" d="M338 358L339 359L338 358M69 359L70 360L69 359z"/>
<path style="fill:#89c43f; stroke:none;" d="M195 359L196 360L195 359M316 359L317 360L316 359z"/>
<path style="fill:#82bf3f; stroke:none;" d="M337 359L338 360L337 359M442 359L443 360L442 359M70 361L71 362L70 361M198 361L199 362L198 361M313 361L314 362L313 361M334 361L335 362L334 361M441 361L442 362L441 361M71 362L72 363L71 362M200 362L201 363L200 362z"/>
<path style="fill:#89c43f; stroke:none;" d="M311 362L312 363L311 362z"/>
<path style="fill:#82bf3f; stroke:none;" d="M333 362L334 363L333 362M202 363L203 364L202 363z"/>
<path style="fill:#89c43f; stroke:none;" d="M309 363L310 364L309 363z"/>
<path style="fill:#82bf3f; stroke:none;" d="M72 364L73 365L72 364z"/>
<path style="fill:#89c43f; stroke:none;" d="M204 364L205 365L204 364M307 364L308 365L307 364z"/>
<path style="fill:#82bf3f; stroke:none;" d="M330 364L331 365L330 364M439 364L440 365L439 364M305 365L306 366L305 365M73 366L74 367L73 366z"/>
<path style="fill:#89c43f; stroke:none;" d="M209 366L210 367L209 366M302 366L303 367L302 366z"/>
<path style="fill:#82bf3f; stroke:none;" d="M438 366L439 367L438 366M487 366L488 367L487 366M74 367L75 368L74 367z"/>
<path style="fill:#89c43f; stroke:none;" d="M211 367L212 368L211 367M300 367L301 368L300 367M214 368L215 369L214 368M297 368L298 369L297 368z"/>
<path style="fill:#82bf3f; stroke:none;" d="M75 369L76 370L75 369z"/>
<path style="fill:#89c43f; stroke:none;" d="M217 369L218 370L217 369z"/>
<path style="fill:#82bf3f; stroke:none;" d="M295 369L296 370L295 369M436 369L437 370L436 369z"/>
<path style="fill:#89c43f; stroke:none;" d="M220 370L221 371L220 370M291 370L292 371L291 370M223 371L224 372L223 371M288 371L289 372L288 371z"/>
<path style="fill:#82bf3f; stroke:none;" d="M435 371L436 372L435 371M77 372L78 373L77 372z"/>
<path style="fill:#89c43f; stroke:none;" d="M227 372L228 373L227 372M284 372L285 373L284 372z"/>
<path style="fill:#82bf3f; stroke:none;" d="M285 372L286 373L285 372M434 372L435 373L434 372z"/>
<path style="fill:#89c43f; stroke:none;" d="M231 373L232 374L231 373M280 373L281 374L280 373z"/>
<path style="fill:#82bf3f; stroke:none;" d="M78 374L79 375L78 374z"/>
<path style="fill:#89c43f; stroke:none;" d="M236.667 374.333L237.333 374.667L236.667 374.333M274.667 374.333L275.333 374.667L274.667 374.333z"/>
<path style="fill:#82bf3f; stroke:none;" d="M433 374L434 375L433 374M79 375L80 376L79 375M243 375L244 376L243 375z"/>
<path style="fill:#89c43f; stroke:none;" d="M244 375L244 376L247 376L244 375M265 375L265 376L268 376L265 375z"/>
<path style="fill:#82bf3f; stroke:none;" d="M268 375L269 376L268 375M432 375L433 376L432 375M431 377L432 378L431 377M81 378L82 379L81 378M430 378L431 379L430 378M82 379L83 380L82 379M429 380L430 381L429 380M83 381L84 382L83 381M428 381L429 382L428 381M84 382L85 383L84 382M427 382L428 383L427 382M478 383L479 384L478 383M426 384L427 385L426 384M86 385L87 386L86 385M425 385L426 386L425 385M87 386L88 387L87 386M424 386L425 387L424 386M88 387L89 388L88 387M422 389L423 390L422 389M37 390L38 391L37 390M90 390L91 391L90 390M421 390L422 391L421 390M91 391L92 392L91 391M420 391L421 392L420 391M92 392L93 393L92 392M472 393L473 394L472 393M418 394L419 395L418 394M417 395L418 396L417 395M95 396L96 397L95 396M416 396L417 397L416 396M470 396L471 397L470 396M96 397L97 398L96 397M415 397L416 398L415 397M97 398L98 399L97 398M414 398L415 399L414 398M98 399L99 400L98 399M99 400L100 401L99 400M100 401L101 402L100 401M101 402L102 403L101 402M411 402L412 403L411 402M102 403L103 404L102 403M410 403L411 404L410 403M409 404L410 405L409 404M408 405L409 406L408 405M407 406L408 407L407 406M406 407L407 408L406 407M405 408L406 409L405 408M404 409L405 410L404 409M109 410L110 411L109 410M110 411L111 412L110 411M402 411L403 412L402 411M111 412L112 413L111 412M112 413L113 414L112 413M113 414L114 415L113 414M398 414L399 415L398 414M114 415L115 416L114 415M397 415L398 416L397 415M115 416L116 417L115 416M396 416L397 417L396 416M116 417L117 418L116 417M395 417L396 418L395 417M57 418L58 419L57 418M118 418L119 419L118 418M394 418L395 419L394 418M119 419L120 420L119 419M120 420L121 421L120 420M391 420L392 421L391 420M121 421L122 422L121 421M390 421L391 422L390 421M122 422L123 423L122 422M389 422L390 423L389 422M124 423L125 424L124 423M388 423L389 424L388 423z"/>
<path style="fill:#fefefe; stroke:none;" d="M62 424L63 425L62 424z"/>
<path style="fill:#82bf3f; stroke:none;" d="M125 424L126 425L125 424M386.667 424.333L387.333 424.667L386.667 424.333M126 425L127 426L126 425M385 425L386 426L385 425M128 426L129 427L128 426M384 426L385 427L384 426M129 427L130 428L129 427M130 428L133 430L130 428M133 430L134 431L133 430M134.667 431.333L135.333 431.667L134.667 431.333M136 432L137 433L136 432M137.667 433.333L138.333 433.667L137.667 433.333M139 434L140 435L139 434M140.667 435.333L141.333 435.667L140.667 435.333M142 436L143 437L142 436M143.667 437.333L144.333 437.667L143.667 437.333M145 438L146 439L145 438M430 443L431 444L430 443M426 447L427 448L426 447z"/>
<path style="fill:#fefefe; stroke:none;" d="M87 449L88 450L87 449z"/>
<path style="fill:#82bf3f; stroke:none;" d="M93 454L94 455L93 454z"/>
<path style="fill:#fefefe; stroke:none;" d="M98 458L99 459L98 458z"/>
<path style="fill:#82bf3f; stroke:none;" d="M102 461L103 462L102 461z"/>
<path style="fill:#fefefe; stroke:none;" d="M106 464L107 465L106 464z"/>
<path style="fill:#82bf3f; stroke:none;" d="M397 469L398 470L397 469M118 472L119 473L118 472M392.667 472.333L393.333 472.667L392.667 472.333M387 475L388 476L387 475M126 477L127 478L126 477M128 478L129 479L128 478z"/>
<path style="fill:#79b93e; stroke:none;" d="M382.667 478.333L383.333 478.667L382.667 478.333z"/>
<path style="fill:#82bf3f; stroke:none;" d="M130 479L131 480L130 479z"/>
<path style="fill:#79b93e; stroke:none;" d="M381 479L382 480L381 479M379 480L380 481L379 480M377.667 481.333L378.333 481.667L377.667 481.333z"/>
<path style="fill:#82bf3f; stroke:none;" d="M137 483L138 484L137 483z"/>
<path style="fill:#79b93e; stroke:none;" d="M374 483L375 484L374 483z"/>
<path style="fill:#82bf3f; stroke:none;" d="M143 486L144 487L143 486z"/>
<path style="fill:#79b93e; stroke:none;" d="M368 486L369 487L368 486z"/>
<path style="fill:#82bf3f; stroke:none;" d="M145 487L146 488L145 487z"/>
<path style="fill:#79b93e; stroke:none;" d="M366 487L367 488L366 487M362.333 488.667L362.667 489.333L362.333 488.667M364 488L365 489L364 488M357 491L358 492L357 491z"/>
<path style="fill:#82bf3f; stroke:none;" d="M160 493L161 494L160 493z"/>
<path style="fill:#79b93e; stroke:none;" d="M352 493L353 494L352 493z"/>
<path style="fill:#82bf3f; stroke:none;" d="M161 494L162 495L161 494z"/>
<path style="fill:#79b93e; stroke:none;" d="M349.667 494.333L350.333 494.667L349.667 494.333z"/>
<path style="fill:#82bf3f; stroke:none;" d="M164 495L165 496L164 495z"/>
<path style="fill:#79b93e; stroke:none;" d="M345 496L346 497L345 496z"/>
<path style="fill:#89c43f; stroke:none;" d="M171 497L172 498L171 497M173.667 498.333L174.333 498.667L173.667 498.333z"/>
<path style="fill:#79b93e; stroke:none;" d="M339 498L340 499L339 498z"/>
<path style="fill:#89c43f; stroke:none;" d="M175 499L176 500L175 499z"/>
<path style="fill:#79b93e; stroke:none;" d="M336 499L337 500L336 499z"/>
<path style="fill:#89c43f; stroke:none;" d="M179 500L180 501L179 500z"/>
<path style="fill:#79b93e; stroke:none;" d="M333 500L334 501L333 500z"/>
<path style="fill:#89c43f; stroke:none;" d="M181 501L182 502L181 501z"/>
<path style="fill:#79b93e; stroke:none;" d="M330 501L331 502L330 501z"/>
<path style="fill:#89c43f; stroke:none;" d="M186 502L187 503L186 502M188 503L189 504L188 503z"/>
<path style="fill:#79b93e; stroke:none;" d="M323 503L324 504L323 503z"/>
<path style="fill:#89c43f; stroke:none;" d="M195 504L196 505L195 504z"/>
<path style="fill:#79b93e; stroke:none;" d="M319 504L320 505L319 504M315 505L316 506L315 505z"/>
<path style="fill:#89c43f; stroke:none;" d="M200.667 506.333L201.333 506.667L200.667 506.333z"/>
<path style="fill:#79b93e; stroke:none;" d="M311 506L312 507L311 506z"/>
<path style="fill:#89c43f; stroke:none;" d="M205 507L206 508L205 507M211 508L212 509L211 508z"/>
<path style="fill:#79b93e; stroke:none;" d="M301 508L302 509L301 508z"/>
<path style="fill:#fefefe; stroke:none;" d="M216 509L217 510L216 509M295 509L296 510L295 509z"/>
<path style="fill:#89c43f; stroke:none;" d="M224 510L225 511L224 510M233 511L234 512L233 511z"/>
<path style="fill:#79b93e; stroke:none;" d="M278 511L279 512L278 511z"/>
</svg>
