<svg width="512" height="512" version="1.1" xmlns="http://www.w3.org/2000/svg" desc="Created with imagetracer.js version 1.2.6" ><path fill="rgb(0,0,0)" stroke="rgb(0,0,0)" stroke-width="1" opacity="0" d="M 0 0 L 233 0.5 L 216.5 2 L 181.5 10 Q 155.5 18 133.5 30 Q 92.6 52.6 63 86.5 Q 36.1 116.6 19 156.5 L 6 196.5 L 2 217.5 L 0.5 234 L 0 0 Z " /><path fill="rgb(0,0,0)" stroke="rgb(0,0,0)" stroke-width="1" opacity="0" d="M 278.5 0 L 512 0 L 512 233.5 L 511 233.5 L 510 217.5 L 504 188.5 Q 496.3 160.7 484 137.5 Q 461 94 425.5 63 Q 395.3 36.2 355.5 19 L 323.5 8 L 294.5 2 L 278.5 1 L 278.5 0 Z " /><path fill="rgb(0,0,0)" stroke="rgb(0,0,0)" stroke-width="1" opacity="0" d="M 511.5 278 L 512 512 L 278 511.5 L 306.5 508 L 333.5 501 Q 356.7 493.7 376.5 483 Q 418.7 460.2 449 425.5 Q 477.5 393.5 495 350.5 L 506 315.5 L 510 294.5 L 511.5 278 Z " /><path fill="rgb(0,0,0)" stroke="rgb(0,0,0)" stroke-width="1" opacity="0" d="M 0.5 279 L 4 306.5 L 10 330.5 Q 17.6 355.4 29 376.5 Q 51.8 418.7 86.5 449 Q 116.7 475.8 156.5 493 L 196.5 506 L 217.5 510 L 234 511.5 L 0 512 L 0.5 279 Z " /><path fill="rgb(253,254,252)" stroke="rgb(253,254,252)" stroke-width="1" opacity="1" d="M 245.5 136 L 274.5 137 L 288.5 140 L 302.5 145 Q 329.5 156.5 347 177.5 Q 361.9 194.1 370 217.5 L 375 238.5 L 376 264.5 L 371 291.5 L 361 314.5 Q 350.4 333.4 334.5 347 Q 317.9 361.9 294.5 370 L 273.5 375 L 247.5 376 L 220.5 371 L 197.5 361 Q 178.1 349.9 164 333.5 Q 148.1 314.9 140 288.5 L 136 266.5 L 136 245.5 L 141 220.5 L 152 195.5 Q 162.9 177.4 178.5 164 Q 192 152.5 209.5 145 L 223.5 140 L 245.5 136 Z M 207 200 L 207 312 L 321 257 Q 323 258 322 255 L 207 200 Z " /><path fill="#ff0000" stroke="#ff0000" stroke-width="1" opacity="0.9921568627450981" d="M 233.5 0 L 277.5 0 L 278.5 1 L 294.5 2 L 323.5 8 L 355.5 19 Q 411.6 43.4 449 86.5 Q 483.9 125.6 502 181.5 L 508 205.5 L 510 223.5 L 511 224.5 L 511 233.5 L 512 234.5 L 512 277.5 L 511 278.5 L 511 287.5 L 510 288.5 L 508 306.5 L 504 323.5 L 495 350.5 L 484 374.5 Q 461.4 417.4 426.5 448 Q 391.4 479.9 342.5 498 L 315.5 506 L 287.5 511 L 278.5 511 L 277.5 512 L 234.5 512 L 233.5 511 L 224.5 511 L 223.5 510 L 211.5 509 L 181.5 502 Q 157.7 494.8 137.5 484 Q 94.6 461.4 64 426.5 Q 32 391.5 14 342.5 L 6 315.5 L 1 287.5 L 1 279.5 L 0 278.5 L 0 234.5 L 1 233.5 L 1 224.5 L 2 223.5 L 4 205.5 L 10 181.5 Q 18 155.5 30 133.5 Q 52.6 92.6 86.5 63 Q 116.7 36.2 156.5 19 L 196.5 6 L 216.5 2 L 232.5 1 L 233.5 0 Z M 246 136 L 224 140 L 210 145 Q 192 152 179 164 Q 163 177 152 196 L 141 221 L 136 246 L 136 267 L 140 289 Q 148 315 164 334 Q 178 350 198 361 L 221 371 L 248 376 L 274 375 L 295 370 Q 318 362 335 347 Q 350 333 361 315 L 371 292 L 376 265 L 375 239 L 370 218 Q 362 194 347 178 Q 330 156 303 145 L 289 140 L 275 137 L 246 136 Z " /><path fill="#ff0000" stroke="#ff0000" stroke-width="1" opacity="0.9921568627450981" d="M 207 200 L 322 255 Q 323.1 257.7 320.5 257 L 207 312 L 207 200 Z " /></svg>